<?xml version="1.0" encoding="utf-8"?><!-- Uploaded to: SVG Repo, www.svgrepo.com, Generator: SVG Repo Mixer Tools -->
<svg width="25px" height="25px" viewBox="0 0 24 24" fill="none" xmlns="http://www.w3.org/2000/svg">
<path d="M8 17H16M8 17C8 18.1046 7.10457 19 6 19C4.89543 19 4 18.1046 4 17M8 17C8 15.8954 7.10457 15 6 15C4.89543 15 4 15.8954 4 17M16 17C16 18.1046 16.8954 19 18 19C19.1046 19 20 18.1046 20 17M16 17C16 15.8954 16.8954 15 18 15C19.1046 15 20 15.8954 20 17M10 5V11M4 11L4.33152 9.01088C4.56901 7.58593 4.68776 6.87345 5.0433 6.3388C5.35671 5.8675 5.79705 5.49447 6.31346 5.26281C6.8993 5 7.6216 5 9.06621 5H12.4311C13.3703 5 13.8399 5 14.2662 5.12945C14.6436 5.24406 14.9946 5.43194 15.2993 5.68236C15.6435 5.96523 15.904 6.35597 16.425 7.13744L19 11M4 17H3.6C3.03995 17 2.75992 17 2.54601 16.891C2.35785 16.7951 2.20487 16.6422 2.10899 16.454C2 16.2401 2 15.9601 2 15.4V14.2C2 13.0799 2 12.5198 2.21799 12.092C2.40973 11.7157 2.71569 11.4097 3.09202 11.218C3.51984 11 4.0799 11 5.2 11H17.2C17.9432 11 18.3148 11 18.6257 11.0492C20.3373 11.3203 21.6797 12.6627 21.9508 14.3743C22 14.6852 22 15.0568 22 15.8C22 15.9858 22 16.0787 21.9877 16.1564C21.9199 16.5843 21.5843 16.9199 21.1564 16.9877C21.0787 17 20.9858 17 20.8 17H20" stroke="grey" stroke-width="2" stroke-linecap="round" stroke-linejoin="round"/>
</svg>