<?xml version="1.0" encoding="utf-8"?><!-- Uploaded to: SVG Repo, www.svgrepo.com, Generator: SVG Repo Mixer Tools -->
<svg fill="#a62626" width="25px" height="25px" viewBox="0 0 24 24" role="img" xmlns="http://www.w3.org/2000/svg"><path d="M.5 19.259a.737.737 0 0 1-.5-.72c0-.302.101-.454.503-.759 1.856-1.405 3.204-3.227 3.848-5.203a7.714 7.714 0 0 0 .366-1.662c.049-.465.16-.668.443-.807a.585.585 0 0 1 .323-.068.58.58 0 0 1 .35.085c.281.143.422.386.422.725 0 .331-.118 1.033-.268 1.6-.663 2.488-2.188 4.713-4.43 6.46a3.67 3.67 0 0 1-.458.315.865.865 0 0 1-.599.034zm7.894.01a.674.674 0 0 1-.361-.26.67.67 0 0 1-.154-.46.73.73 0 0 1 .12-.434c.028-.038.227-.215.443-.392 1.044-.855 1.85-1.634 2.505-2.422.264-.318.528-.669.512-.68a15.986 15.986 0 0 0-.194-.121c-.258-.158-.44-.313-.57-.486-.555-.74-.468-1.63.26-2.643.594-.827 1.266-1.377 1.974-1.614.128-.043.221-.056.398-.056.212 0 .244.006.393.08.307.15.467.373.556.771.072.322.077 1.125.01 1.498a8.12 8.12 0 0 1-.391 1.374c-.015.036-.002.042.09.042.058 0 .198-.011.31-.025 1.368-.165 2.274-.862 2.695-2.071.103-.297.153-.52.198-.887.019-.156.053-.32.075-.363a.79.79 0 0 1 .368-.364.716.716 0 0 1 .86.146c.218.222.266.439.2.911-.11.791-.417 1.603-.838 2.218a4.206 4.206 0 0 1-1.657 1.44c-.781.388-1.443.527-2.526.531l-.614.003-.222.316a16.054 16.054 0 0 1-2.164 2.461c-.707.662-1.52 1.343-1.727 1.448a.885.885 0 0 1-.549.039zm3.917-6.072c.1-.196.269-.66.337-.925.076-.297.136-.64.115-.66-.024-.025-.378.358-.54.583-.196.273-.351.578-.368.725-.01.095-.004.122.045.175.043.047.293.188.354.2a.608.608 0 0 0 .057-.098zm1.232 4.474a.827.827 0 0 1-.515-.448.84.84 0 0 1 .015-.637.798.798 0 0 1 .39-.372c.096-.043.202-.062.474-.084a22.065 22.065 0 0 0 2.398-.342c.436-.09.613-.092.784-.014a.733.733 0 0 1 .384.376.59.59 0 0 1 .078.343c0 .223-.08.407-.233.546-.158.142-.31.195-.892.311-.851.17-1.557.27-2.31.33-.382.03-.433.029-.573-.01zm5.239-1.1a.756.756 0 0 1-.508-.536.736.736 0 0 1 .224-.75c.12-.11.16-.128.645-.291 1.91-.643 2.998-1.294 3.242-1.939.213-.566.006-1.377-.596-2.338-.196-.31-.237-.43-.222-.635a.782.782 0 0 1 .433-.64c.086-.046.142-.056.322-.056.353 0 .502.1.776.52.404.618.702 1.3.836 1.917.07.318.087.856.039 1.171-.232 1.512-1.474 2.5-4.372 3.477-.422.142-.629.167-.819.1zM7.715 15.124a.81.81 0 0 1-.419-.57c-.018-.097-.01-.216.036-.551.277-1.99.503-4.925.633-8.2.021-.553.056-.67.262-.875.124-.124.177-.159.293-.193.4-.116.812.087.958.47.05.13.051.162.037.682a115.06 115.06 0 0 1-.391 6.09c-.156 1.617-.293 2.637-.377 2.801a.828.828 0 0 1-.399.358c-.199.074-.47.069-.633-.012z"/></svg>