<?xml version="1.0" encoding="utf-8"?><!-- Uploaded to: SVG Repo, www.svgrepo.com, Generator: SVG Repo Mixer Tools -->
<svg width="25px" height="25px" viewBox="0 0 24 24" fill="none" xmlns="http://www.w3.org/2000/svg">
<path d="M12 9.5V12L14 13.5M7.93191 6.20428C8.54129 6 9.36367 6 10.8 6H13.2C14.6363 6 15.4587 6 16.0681 6.20429M7.93191 6.20428C7.82847 6.23896 7.73116 6.27953 7.63803 6.32698C7.07354 6.6146 6.6146 7.07354 6.32698 7.63803C6 8.27976 6 9.11984 6 10.8V13.2C6 14.8802 6 15.7202 6.32698 16.362C6.6146 16.9265 7.07354 17.3854 7.63803 17.673C7.73112 17.7205 7.82838 17.761 7.93178 17.7957M7.93191 6.20428L9.00003 3H15L16.0681 6.20429M16.0681 6.20429C16.1715 6.23897 16.2688 6.27953 16.362 6.32698C16.9265 6.6146 17.3854 7.07354 17.673 7.63803C18 8.27976 18 9.11984 18 10.8V13.2C18 14.8802 18 15.7202 17.673 16.362C17.3854 16.9265 16.9265 17.3854 16.362 17.673C16.2688 17.7205 16.1715 17.7611 16.068 17.7958M7.93178 17.7957C8.54116 18 9.36356 18 10.8 18H13.2C14.6362 18 15.4586 18 16.068 17.7958M7.93178 17.7957L8.9996 21H14.9996L16.068 17.7958" stroke="grey" stroke-width="2" stroke-linecap="round" stroke-linejoin="round"/>
</svg>