<?xml version="1.0" encoding="utf-8"?><!-- Uploaded to: SVG Repo, www.svgrepo.com, Generator: SVG Repo Mixer Tools -->
<svg version="1.1" id="designs" xmlns="http://www.w3.org/2000/svg" xmlns:xlink="http://www.w3.org/1999/xlink" 
	 width="25px" height="25px" viewBox="0 0 32 32" xml:space="preserve">
<style type="text/css">
	.sketchy_een{fill:grey;}
</style>
<path class="sketchy_een" d="M29.17,8.849c-0.108-0.353-0.226-0.7-0.349-1.049c-0.132-0.375-0.23-0.761-0.388-1.127
	c-0.046-0.109-0.1-0.212-0.158-0.316c-0.148-0.267-0.384-0.456-0.633-0.625c-0.114-0.076-0.244-0.111-0.376-0.111
	c-0.276,0-0.557,0.153-0.695,0.391c-0.011,0.019-0.01,0.038-0.02,0.057c-0.191,0.214-0.396,0.415-0.6,0.616
	c-0.236,0.232-0.457,0.475-0.681,0.716c-0.444,0.478-0.904,0.952-1.406,1.37c-0.069-0.015-0.137-0.032-0.205-0.054
	c-0.049-0.028-0.096-0.058-0.142-0.092c-0.151-0.127-0.286-0.267-0.422-0.412c-0.153-0.165-0.32-0.313-0.468-0.482
	c-0.014-0.021-0.029-0.042-0.043-0.062c0.117-0.142,0.239-0.281,0.362-0.419c0.145-0.161,0.273-0.338,0.414-0.503
	c0.525-0.614,1.14-1.152,1.7-1.733c0.181-0.188,0.253-0.438,0.234-0.682c0.005-0.007,0.012-0.011,0.017-0.019
	c0.221-0.377,0.093-0.885-0.289-1.102c-0.262-0.15-0.522-0.306-0.789-0.447c-0.251-0.128-0.514-0.239-0.776-0.343
	c-0.249-0.098-0.518-0.165-0.778-0.232c-0.315-0.082-0.642-0.119-0.967-0.145C21.484,2.026,21.251,2,21.02,2
	c-0.078,0-0.155,0.003-0.232,0.01c-0.429,0.041-0.872,0.08-1.292,0.189c-0.354,0.093-0.679,0.271-0.995,0.455
	c-0.345,0.202-0.685,0.414-1.006,0.653c-0.064,0.047-0.126,0.095-0.188,0.144c0.033-0.025,0.066-0.05,0.098-0.075
	c-0.345,0.265-0.681,0.534-0.987,0.844c-0.314,0.321-0.614,0.683-0.87,1.052c-0.225,0.323-0.432,0.648-0.612,0.998
	C14.754,6.627,14.6,6.976,14.531,7.37c-0.069,0.41-0.143,0.818-0.191,1.232c-0.05,0.436-0.009,0.867,0.065,1.299
	c0.044,0.26,0.148,0.51,0.221,0.765c0.095,0.345,0.243,0.663,0.416,0.974c0.066,0.12,0.154,0.22,0.238,0.324
	c-0.492,0.5-0.983,1-1.484,1.491c-0.568,0.557-1.149,1.1-1.722,1.65c-0.586,0.56-1.201,1.091-1.787,1.652
	c-0.542,0.52-1.076,1.049-1.615,1.576c-0.562,0.551-1.115,1.11-1.639,1.7c-0.52,0.583-1.034,1.167-1.526,1.772
	c-0.444,0.549-0.872,1.11-1.314,1.661c-0.202,0.25-0.405,0.499-0.588,0.765c-0.171,0.241-0.301,0.505-0.449,0.761
	c-0.173,0.299-0.34,0.59-0.462,0.915c-0.113,0.302-0.143,0.635-0.115,0.954c0.037,0.41,0.104,0.787,0.325,1.145
	c0.16,0.258,0.367,0.445,0.594,0.64c0.249,0.215,0.488,0.431,0.778,0.596c0.2,0.113,0.419,0.2,0.631,0.291
	c0.275,0.121,0.546,0.254,0.826,0.36c0.056,0.022,0.113,0.041,0.173,0.057c0.247,0.067,0.47,0.059,0.718,0.021
	c0.197-0.03,0.386-0.076,0.572-0.149c0.186-0.072,0.366-0.149,0.533-0.256c0.208-0.134,0.397-0.295,0.588-0.453
	c0.275-0.227,0.536-0.466,0.791-0.715c0.531-0.518,1.049-1.05,1.572-1.578c0.265-0.265,0.538-0.521,0.815-0.778
	c0.28-0.26,0.547-0.538,0.817-0.809c0.542-0.544,1.088-1.089,1.609-1.652c0.521-0.564,1.03-1.143,1.526-1.732
	c0.249-0.295,0.503-0.585,0.757-0.874c0.262-0.296,0.478-0.622,0.715-0.937c0.228-0.284,0.465-0.56,0.686-0.848
	c0.159-0.208,0.299-0.428,0.452-0.639c0.179-0.219,0.372-0.428,0.545-0.655c0.169-0.221,0.332-0.447,0.499-0.67
	c0.123-0.163,0.234-0.332,0.338-0.51c0.002-0.003,0.004-0.006,0.006-0.01c0.04,0.025,0.075,0.057,0.118,0.078
	c0.317,0.158,0.677,0.299,1.021,0.388c0.377,0.1,0.787,0.146,1.175,0.109c0.399-0.039,0.8-0.098,1.191-0.184
	c0.625-0.137,1.266-0.186,1.869-0.414c0.787-0.295,1.485-0.768,2.086-1.353c0.28-0.271,0.538-0.564,0.804-0.85
	c0.286-0.308,0.544-0.642,0.785-0.987c0.238-0.338,0.419-0.727,0.572-1.11c0.135-0.343,0.23-0.7,0.297-1.062
	C29.511,10.506,29.409,9.639,29.17,8.849z M23.614,8.703L23.614,8.703c-0.019-0.015-0.038-0.03-0.057-0.044
	c-0.002-0.002-0.005-0.004-0.007-0.006C23.571,8.67,23.593,8.687,23.614,8.703z M23.481,8.6c-0.005-0.003-0.009-0.007-0.014-0.01
	c0.019,0.015,0.039,0.03,0.058,0.044c0.004,0.003,0.008,0.006,0.012,0.009c-0.039-0.03-0.077-0.059-0.116-0.089
	C23.441,8.57,23.461,8.585,23.481,8.6z M27.852,10.865c-0.062,0.356-0.149,0.709-0.276,1.047c-0.085,0.187-0.169,0.375-0.27,0.554
	c-0.108,0.19-0.234,0.368-0.364,0.544c-0.248,0.308-0.516,0.6-0.781,0.896c-0.277,0.309-0.574,0.597-0.896,0.857
	c-0.253,0.184-0.523,0.341-0.808,0.472c-0.65,0.257-1.353,0.374-2.046,0.471c-0.345,0.042-0.695,0.063-1.043,0.032
	c-0.201-0.037-0.394-0.091-0.585-0.167c-0.159-0.069-0.319-0.142-0.464-0.234c-0.06-0.056-0.118-0.115-0.175-0.177
	c-0.117-0.126-0.256-0.238-0.403-0.325c-0.393-0.236-0.92-0.091-1.151,0.302c-0.04,0.068-0.053,0.141-0.072,0.212
	c-0.026,0.042-0.059,0.078-0.076,0.126c-0.051,0.082-0.112,0.158-0.167,0.236c-0.072,0.1-0.137,0.204-0.202,0.308
	c-0.124,0.199-0.241,0.393-0.384,0.581c0.012-0.015,0.024-0.031,0.036-0.046c-0.04,0.052-0.081,0.104-0.121,0.156
	c0.016-0.02,0.032-0.04,0.048-0.06c-0.107,0.139-0.213,0.279-0.319,0.419c-0.185,0.23-0.391,0.443-0.556,0.688
	c-0.067,0.1-0.119,0.208-0.186,0.308c-0.055,0.083-0.115,0.164-0.175,0.245c-0.175,0.222-0.356,0.438-0.534,0.655
	c-0.212,0.263-0.405,0.538-0.604,0.81c-0.23,0.276-0.48,0.535-0.713,0.808c-0.245,0.286-0.49,0.572-0.739,0.854
	c-0.512,0.577-1.045,1.136-1.591,1.681c-0.555,0.551-1.095,1.115-1.642,1.674c-0.26,0.264-0.527,0.521-0.794,0.78
	c-0.271,0.262-0.527,0.536-0.794,0.803c-0.289,0.288-0.596,0.561-0.895,0.839c-0.269,0.254-0.556,0.482-0.847,0.708
	c-0.156,0.117-0.315,0.228-0.49,0.316c-0.123,0.044-0.247,0.078-0.375,0.103c-0.027,0.002-0.054,0.003-0.081,0.003
	c-0.169-0.041-0.331-0.102-0.492-0.171c0.065,0.028,0.13,0.056,0.195,0.083c-0.279-0.118-0.566-0.216-0.848-0.328
	c-0.128-0.058-0.253-0.122-0.371-0.198c-0.094-0.082-0.183-0.171-0.281-0.251c-0.111-0.093-0.222-0.179-0.32-0.283
	c-0.028-0.043-0.054-0.087-0.078-0.133c-0.017-0.053-0.031-0.106-0.042-0.161c-0.011-0.115-0.016-0.231-0.011-0.346
	c0.017-0.076,0.038-0.15,0.063-0.224c0.141-0.301,0.322-0.585,0.485-0.874c0.182-0.321,0.388-0.618,0.612-0.909
	c-0.009,0.012-0.019,0.024-0.028,0.036c0.452-0.59,0.891-1.188,1.343-1.779c0.459-0.584,0.945-1.146,1.446-1.696
	c0.262-0.288,0.516-0.579,0.787-0.859c0.28-0.288,0.57-0.564,0.859-0.844c0.544-0.527,1.08-1.063,1.618-1.594
	c0.562-0.553,1.164-1.063,1.743-1.6c0.605-0.561,1.219-1.11,1.832-1.665c0.703-0.635,1.388-1.286,2.06-1.958
	c0.014-0.014,0.019-0.033,0.031-0.048c0.012-0.011,0.028-0.015,0.04-0.026c0.341-0.341,0.306-0.854,0-1.201
	c-0.122-0.137-0.251-0.268-0.373-0.406c-0.089-0.138-0.162-0.289-0.232-0.438c-0.054-0.157-0.094-0.32-0.142-0.48
	c-0.053-0.185-0.113-0.366-0.15-0.554c-0.034-0.375-0.017-0.752,0.029-1.127c0.05-0.37,0.092-0.74,0.22-1.092
	c0.211-0.456,0.465-0.888,0.765-1.292c0.188-0.234,0.384-0.461,0.591-0.683c0.187-0.2,0.397-0.378,0.612-0.549
	c0.435-0.326,0.907-0.634,1.402-0.862c0.192-0.066,0.388-0.113,0.589-0.147c0.319-0.036,0.636-0.064,0.957-0.044
	c0.252,0.015,0.508,0.033,0.759,0.063c0.406,0.064,0.817,0.166,1.2,0.317c0.101,0.047,0.194,0.104,0.291,0.157
	c-0.807,0.839-1.631,1.67-2.341,2.593c-0.115,0.149-0.18,0.292-0.251,0.471c-0.141,0.36-0.061,0.766,0.139,1.086
	c0.199,0.317,0.455,0.601,0.731,0.85c0.182,0.163,0.329,0.36,0.518,0.512c0.139,0.111,0.282,0.219,0.425,0.327
	c0.161,0.124,0.351,0.204,0.547,0.258c0.199,0.056,0.414,0.078,0.616,0.097c0.492,0.048,0.9-0.282,1.238-0.586
	c0.315-0.282,0.618-0.583,0.921-0.88c0.289-0.282,0.564-0.577,0.857-0.855c0.105-0.098,0.212-0.195,0.319-0.292
	c0.024,0.085,0.049,0.169,0.076,0.253c0.067,0.217,0.145,0.432,0.212,0.65c0.127,0.403,0.26,0.816,0.331,1.234
	C27.852,10.218,27.877,10.543,27.852,10.865z M7.051,26.313c0,0.44-0.367,0.807-0.807,0.807s-0.807-0.368-0.807-0.807
	c0-0.44,0.367-0.807,0.807-0.807S7.051,25.873,7.051,26.313z"/>
</svg>